<svg width="140" height="140" viewBox="0 0 140 140" fill="none" xmlns="http://www.w3.org/2000/svg">
<path d="M34.909 25C37.7671 20.0496 43.0491 17 48.7654 17L91.8372 17C97.5534 17 102.835 20.0496 105.694 25L127.229 62.3013C130.088 67.2517 130.088 73.3509 127.229 78.3013L105.694 115.603C102.835 120.553 97.5534 123.603 91.8372 123.603L48.7654 123.603C43.0491 123.603 37.7671 120.553 34.909 115.603L13.3731 78.3013C10.5149 73.3508 10.5149 67.2517 13.3731 62.3013M34.909 25L13.3731 62.3013M34.909 25L13.3731 62.3013M34.909 25L13.3731 62.3013" stroke="#C9A5FC" stroke-width="20"/>
<path d="M53.8387 46.8013C54.7318 45.2543 56.3825 44.3013 58.1688 44.3013L82.3953 44.3013C84.1816 44.3013 85.8322 45.2543 86.7254 46.8013L98.8387 67.782C99.7318 69.329 99.7318 71.235 98.8387 72.782L86.7254 93.7628C85.8322 95.3098 84.1816 96.2628 82.3953 96.2628L58.1688 96.2628C56.3825 96.2628 54.7318 95.3098 53.8387 93.7628L41.7254 72.782C40.8322 71.235 40.8322 69.329 41.7254 67.782L53.8387 46.8013Z" fill="#C9A5FC"/>
<path d="M80.8013 75.9519L124.103 75.9519L102.452 113.452L80.8013 75.9519Z" fill="#C9A5FC"/>
</svg>
